<svg width="55" height="55" viewBox="0 0 55 55" fill="none" xmlns="http://www.w3.org/2000/svg">
<g clip-path="url(#clip0_11_48)">
<mask id="mask0_11_48" style="mask-type:luminance" maskUnits="userSpaceOnUse" x="0" y="0" width="55" height="55">
<path d="M55 0H0V55H55V0Z" fill="white"/>
</mask>
<g mask="url(#mask0_11_48)">
<path d="M51.8719 43.9656C52.3087 43.6255 52.6569 43.1849 52.8868 42.6813C53.1168 42.1777 53.2217 41.626 53.1927 41.0732C53.1636 40.5204 53.0015 39.9827 52.7201 39.506C52.4387 39.0292 52.0463 38.6275 51.5762 38.335L51.5625 18.3219L48.125 20.625V38.3281C47.6604 38.6205 47.2725 39.0198 46.9936 39.4927C46.7148 39.9656 46.5532 40.4983 46.5222 41.0464C46.4913 41.5945 46.5919 42.142 46.8157 42.6433C47.0395 43.1445 47.38 43.585 47.8088 43.9278L46.5094 45.6534C45.3537 47.1236 44.7136 48.933 44.6875 50.8028V55.0034H47.4891C48.1621 55.0034 48.8159 54.7789 49.3469 54.3655C49.878 53.9521 50.2561 53.3734 50.4212 52.7209L51.5591 48.1284V55.0034H54.9966V50.8441C54.9703 48.9646 54.3251 47.1463 53.1609 45.6706L51.8719 43.9656ZM27.5 0L0 13.75L27.5 30.9375L55 13.75L27.5 0Z" fill="white"/>
<path d="M27.5 34.375L10.3125 22.9281V28.8063C10.3125 31.9344 20.4187 41.25 27.5 41.25C34.5812 41.25 44.6875 31.9344 44.6875 28.8063V22.9281L27.5 34.375Z" fill="white"/>
</g>
</g>
<defs>
<clipPath id="clip0_11_48">
<rect width="55" height="55" fill="white"/>
</clipPath>
</defs>
</svg>
