<svg width="196" height="78" viewBox="0 0 196 78" fill="none" xmlns="http://www.w3.org/2000/svg">
<path d="M82.984 16.006C81.78 15.3467 80.5473 14.802 79.286 14.372C78.0533 13.942 76.8923 13.727 75.803 13.727C74.4557 13.727 73.395 13.9993 72.621 14.544C71.847 15.0887 71.46 15.9057 71.46 16.995C71.46 17.7403 71.7467 18.414 72.32 19.016C72.922 19.5893 73.6817 20.1053 74.599 20.564C75.545 21.0227 76.5197 21.4383 77.523 21.811C78.4403 22.155 79.3433 22.5707 80.232 23.058C81.1493 23.5167 81.9663 24.1043 82.683 24.821C83.3997 25.509 83.973 26.3833 84.403 27.444C84.833 28.476 85.048 29.7517 85.048 31.271C85.048 32.8763 84.6323 34.367 83.801 35.743C82.9697 37.119 81.7513 38.237 80.146 39.097C78.5407 39.9283 76.5627 40.344 74.212 40.344C73.008 40.344 71.7753 40.2293 70.514 40C69.2813 39.742 68.063 39.3693 66.859 38.882C65.655 38.366 64.494 37.721 63.376 36.947L66.128 32.088C66.8733 32.6327 67.676 33.12 68.536 33.55C69.4247 33.9513 70.3133 34.2667 71.202 34.496C72.0907 34.7253 72.9077 34.84 73.653 34.84C74.3983 34.84 75.1437 34.7397 75.889 34.539C76.663 34.3097 77.2937 33.937 77.781 33.421C78.297 32.905 78.555 32.1883 78.555 31.271C78.555 30.6403 78.34 30.067 77.91 29.551C77.5087 29.035 76.9497 28.562 76.233 28.132C75.545 27.702 74.7853 27.3293 73.954 27.014C72.9793 26.6413 71.976 26.2113 70.944 25.724C69.912 25.2367 68.9373 24.649 68.02 23.961C67.1313 23.2443 66.4003 22.37 65.827 21.338C65.2823 20.2773 65.01 18.9873 65.01 17.468C65.01 15.6333 65.4113 14.0423 66.214 12.695C67.0453 11.3477 68.2063 10.287 69.697 9.51301C71.1877 8.71034 72.9077 8.26601 74.857 8.18001C77.4083 8.18001 79.4723 8.48101 81.049 9.08301C82.6543 9.68501 84.0877 10.4017 85.349 11.233L82.984 16.006Z" fill="white"/>
<path d="M91.1543 8.35201H97.3893V40H91.1543V8.35201Z" fill="white"/>
<path d="M122.457 16.006C121.253 15.3467 120.02 14.802 118.759 14.372C117.526 13.942 116.365 13.727 115.276 13.727C113.928 13.727 112.868 13.9993 112.094 14.544C111.32 15.0887 110.933 15.9057 110.933 16.995C110.933 17.7403 111.219 18.414 111.793 19.016C112.395 19.5893 113.154 20.1053 114.072 20.564C115.018 21.0227 115.992 21.4383 116.996 21.811C117.913 22.155 118.816 22.5707 119.705 23.058C120.622 23.5167 121.439 24.1043 122.156 24.821C122.872 25.509 123.446 26.3833 123.876 27.444C124.306 28.476 124.521 29.7517 124.521 31.271C124.521 32.8763 124.105 34.367 123.274 35.743C122.442 37.119 121.224 38.237 119.619 39.097C118.013 39.9283 116.035 40.344 113.685 40.344C112.481 40.344 111.248 40.2293 109.987 40C108.754 39.742 107.536 39.3693 106.332 38.882C105.128 38.366 103.967 37.721 102.849 36.947L105.601 32.088C106.346 32.6327 107.149 33.12 108.009 33.55C108.897 33.9513 109.786 34.2667 110.675 34.496C111.563 34.7253 112.38 34.84 113.126 34.84C113.871 34.84 114.616 34.7397 115.362 34.539C116.136 34.3097 116.766 33.937 117.254 33.421C117.77 32.905 118.028 32.1883 118.028 31.271C118.028 30.6403 117.813 30.067 117.383 29.551C116.981 29.035 116.422 28.562 115.706 28.132C115.018 27.702 114.258 27.3293 113.427 27.014C112.452 26.6413 111.449 26.2113 110.417 25.724C109.385 25.2367 108.41 24.649 107.493 23.961C106.604 23.2443 105.873 22.37 105.3 21.338C104.755 20.2773 104.483 18.9873 104.483 17.468C104.483 15.6333 104.884 14.0423 105.687 12.695C106.518 11.3477 107.679 10.287 109.17 9.51301C110.66 8.71034 112.38 8.26601 114.33 8.18001C116.881 8.18001 118.945 8.48101 120.522 9.08301C122.127 9.68501 123.56 10.4017 124.822 11.233L122.457 16.006Z" fill="white"/>
<path d="M136.948 19.618L136.776 21.209L137.722 20.005L148.042 8.35201H156.126L143.054 22.542L156.169 40H148.257L138.496 26.498L136.948 28.046V40H130.627V8.35201H136.948V19.618Z" fill="white"/>
<path d="M157.334 40L171.61 7.10501H171.954L186.23 40H179.006L169.89 16.866L174.405 13.77L163.483 40H157.334ZM167.095 28.562H176.598L178.791 33.808H165.16L167.095 28.562Z" fill="white"/>
<path d="M7.648 67.496C7.25333 67.2933 6.82133 67.1173 6.352 66.968C5.88266 66.8187 5.424 66.744 4.976 66.744C4.35733 66.744 3.86133 66.888 3.488 67.176C3.12533 67.464 2.944 67.848 2.944 68.328C2.944 68.6907 3.06133 69 3.296 69.256C3.53066 69.5013 3.84 69.7147 4.224 69.896C4.608 70.0773 5.008 70.248 5.424 70.408C5.78666 70.5467 6.144 70.7013 6.496 70.872C6.848 71.0427 7.16266 71.256 7.44 71.512C7.728 71.768 7.952 72.0827 8.112 72.456C8.28266 72.8293 8.368 73.2933 8.368 73.848C8.368 74.456 8.21333 75.0107 7.904 75.512C7.60533 76.0133 7.17333 76.408 6.608 76.696C6.04266 76.984 5.37066 77.128 4.592 77.128C4.08 77.128 3.58933 77.0693 3.12 76.952C2.66133 76.8347 2.23466 76.6853 1.84 76.504C1.44533 76.312 1.09333 76.1147 0.783997 75.912L1.472 74.696C1.728 74.8773 2.02133 75.0533 2.352 75.224C2.68266 75.384 3.02933 75.5173 3.392 75.624C3.75466 75.72 4.10666 75.768 4.448 75.768C4.81066 75.768 5.168 75.704 5.52 75.576C5.88266 75.4373 6.18133 75.2293 6.416 74.952C6.65066 74.6747 6.768 74.3067 6.768 73.848C6.768 73.4533 6.66133 73.128 6.448 72.872C6.24533 72.6053 5.97333 72.3813 5.632 72.2C5.29066 72.008 4.928 71.8373 4.544 71.688C4.18133 71.5493 3.81333 71.4 3.44 71.24C3.06666 71.0693 2.72 70.8667 2.4 70.632C2.08 70.3867 1.824 70.088 1.632 69.736C1.44 69.384 1.344 68.9573 1.344 68.456C1.344 67.848 1.488 67.32 1.776 66.872C2.07466 66.4133 2.48 66.056 2.992 65.8C3.504 65.5333 4.09066 65.3893 4.752 65.368C5.49866 65.368 6.15466 65.4587 6.72 65.64C7.296 65.8213 7.80266 66.0453 8.24 66.312L7.648 67.496Z" fill="white"/>
<path d="M10.6085 70.376H12.0965V77H10.6085V70.376ZM10.4965 67.976C10.4965 67.7413 10.5872 67.544 10.7685 67.384C10.9605 67.224 11.1685 67.144 11.3925 67.144C11.6165 67.144 11.8138 67.224 11.9845 67.384C12.1658 67.544 12.2565 67.7413 12.2565 67.976C12.2565 68.2213 12.1658 68.424 11.9845 68.584C11.8138 68.7333 11.6165 68.808 11.3925 68.808C11.1685 68.808 10.9605 68.728 10.7685 68.568C10.5872 68.408 10.4965 68.2107 10.4965 67.976Z" fill="white"/>
<path d="M16.527 77.128C16.0577 77.128 15.599 77.048 15.151 76.888C14.7137 76.7173 14.351 76.4667 14.063 76.136L14.687 75.272C14.9643 75.5387 15.247 75.7413 15.535 75.88C15.8337 76.008 16.127 76.072 16.415 76.072C16.6283 76.072 16.8257 76.0453 17.007 75.992C17.1883 75.9387 17.3323 75.8533 17.439 75.736C17.5563 75.608 17.615 75.4373 17.615 75.224C17.615 74.9893 17.535 74.8027 17.375 74.664C17.2257 74.5253 17.0283 74.4133 16.783 74.328C16.5483 74.2427 16.2977 74.1627 16.031 74.088C15.487 73.9067 15.071 73.656 14.783 73.336C14.495 73.016 14.351 72.6267 14.351 72.168C14.351 71.816 14.4363 71.4907 14.607 71.192C14.7883 70.8827 15.0497 70.632 15.391 70.44C15.743 70.248 16.175 70.152 16.687 70.152C17.1457 70.152 17.5563 70.2107 17.919 70.328C18.2817 70.4347 18.623 70.616 18.943 70.872L18.351 71.8C18.159 71.5973 17.9297 71.448 17.663 71.352C17.3963 71.256 17.1563 71.2027 16.943 71.192C16.7617 71.1813 16.5857 71.208 16.415 71.272C16.255 71.336 16.1217 71.4267 16.015 71.544C15.9083 71.6613 15.855 71.8 15.855 71.96C15.855 72.184 15.9297 72.3653 16.079 72.504C16.2283 72.6427 16.4203 72.7547 16.655 72.84C16.9003 72.9147 17.1403 72.9947 17.375 73.08C17.7057 73.176 17.999 73.304 18.255 73.464C18.511 73.624 18.7137 73.8213 18.863 74.056C19.023 74.2907 19.103 74.584 19.103 74.936C19.103 75.3307 19.007 75.6987 18.815 76.04C18.6337 76.3707 18.351 76.6373 17.967 76.84C17.5937 77.032 17.1137 77.128 16.527 77.128Z" fill="white"/>
<path d="M21.8266 67.464H23.3146V70.408H25.1386V71.576H23.3146V77H21.8266V71.576H20.6106V70.408H21.8266V67.464Z" fill="white"/>
<path d="M30.0086 77.16C29.2513 77.16 28.6006 77.0107 28.0566 76.712C27.5126 76.4027 27.0913 75.9867 26.7926 75.464C26.5046 74.9307 26.3606 74.3227 26.3606 73.64C26.3606 72.9893 26.526 72.3973 26.8566 71.864C27.1873 71.3307 27.63 70.904 28.1846 70.584C28.7393 70.264 29.358 70.104 30.0406 70.104C30.9153 70.104 31.6406 70.36 32.2166 70.872C32.7926 71.384 33.182 72.088 33.3846 72.984L27.9286 74.904L27.5766 74.024L32.0566 72.392L31.7366 72.6C31.6086 72.248 31.3953 71.944 31.0966 71.688C30.798 71.4213 30.4086 71.288 29.9286 71.288C29.5233 71.288 29.1606 71.3893 28.8406 71.592C28.5206 71.784 28.27 72.0507 28.0886 72.392C27.9073 72.7333 27.8166 73.1227 27.8166 73.56C27.8166 74.0187 27.9126 74.424 28.1046 74.776C28.2966 75.1173 28.558 75.3893 28.8886 75.592C29.23 75.784 29.614 75.88 30.0406 75.88C30.3286 75.88 30.606 75.8267 30.8726 75.72C31.15 75.6133 31.406 75.4747 31.6406 75.304L32.3286 76.408C31.998 76.632 31.6246 76.8133 31.2086 76.952C30.8033 77.0907 30.4033 77.16 30.0086 77.16Z" fill="white"/>
<path d="M36.5771 70.376L36.7051 71.864L36.6411 71.736C36.8865 71.2347 37.2331 70.84 37.6811 70.552C38.1398 70.264 38.6625 70.12 39.2491 70.12C39.6225 70.12 39.9531 70.1787 40.2411 70.296C40.5291 70.4133 40.7638 70.584 40.9451 70.808C41.1371 71.0213 41.2598 71.288 41.3131 71.608L41.2331 71.656C41.4891 71.176 41.8411 70.8027 42.2891 70.536C42.7478 70.2587 43.2278 70.12 43.7291 70.12C44.3798 70.12 44.8918 70.3067 45.2651 70.68C45.6491 71.0427 45.8465 71.5173 45.8571 72.104V77H44.3691V72.632C44.3585 72.2907 44.2731 72.008 44.1131 71.784C43.9638 71.5493 43.6971 71.4213 43.3131 71.4C42.9291 71.4 42.5825 71.5173 42.2731 71.752C41.9745 71.9867 41.7398 72.2907 41.5691 72.664C41.3985 73.0267 41.3078 73.4213 41.2971 73.848V77H39.8091V72.632C39.7985 72.2907 39.7078 72.008 39.5371 71.784C39.3771 71.5493 39.1051 71.4213 38.7211 71.4C38.3265 71.4 37.9798 71.5173 37.6811 71.752C37.3825 71.9867 37.1478 72.2907 36.9771 72.664C36.8171 73.0373 36.7371 73.4373 36.7371 73.864V77H35.2491V70.376H36.5771Z" fill="white"/>
<path d="M53.8827 65.432H55.4347V77H53.8827V65.432Z" fill="white"/>
<path d="M59.7177 70.376L59.8457 71.992L59.7817 71.736C59.9951 71.2453 60.3417 70.856 60.8217 70.568C61.3017 70.2693 61.8564 70.12 62.4857 70.12C63.1151 70.12 63.6271 70.3067 64.0217 70.68C64.4271 71.0427 64.6351 71.5173 64.6457 72.104V77H63.1417V72.632C63.1311 72.2693 63.0244 71.976 62.8217 71.752C62.6297 71.5173 62.3257 71.4 61.9097 71.4C61.5257 71.4 61.1791 71.5067 60.8697 71.72C60.5604 71.9333 60.3151 72.2267 60.1337 72.6C59.9631 72.9733 59.8777 73.4053 59.8777 73.896V77H58.3897V70.376H59.7177Z" fill="white"/>
<path d="M67.7775 77V71.704H66.6415V70.376H67.7775V67.576C67.7775 66.616 67.9908 65.88 68.4175 65.368C68.8548 64.856 69.4948 64.6 70.3375 64.6C70.5615 64.6 70.8068 64.632 71.0735 64.696C71.3508 64.76 71.5908 64.8667 71.7935 65.016L71.1695 66.088C71.0735 65.992 70.9668 65.928 70.8495 65.896C70.7322 65.8533 70.6148 65.832 70.4975 65.832C70.1028 65.832 69.7988 65.9653 69.5855 66.232C69.3722 66.4987 69.2655 66.952 69.2655 67.592V70.376H71.3615V71.704H69.2655V77H67.7775Z" fill="white"/>
<path d="M72.3606 73.624C72.3606 72.9627 72.5153 72.3653 72.8246 71.832C73.1446 71.2987 73.582 70.8773 74.1366 70.568C74.6913 70.2587 75.3206 70.104 76.0246 70.104C76.75 70.104 77.3846 70.2587 77.9286 70.568C78.4726 70.8773 78.894 71.2987 79.1926 71.832C79.4913 72.3653 79.6406 72.9627 79.6406 73.624C79.6406 74.2853 79.4913 74.888 79.1926 75.432C78.894 75.9653 78.4673 76.3867 77.9126 76.696C77.3686 77.0053 76.734 77.16 76.0086 77.16C75.3046 77.16 74.6753 77.016 74.1206 76.728C73.5766 76.4293 73.1446 76.0187 72.8246 75.496C72.5153 74.9627 72.3606 74.3387 72.3606 73.624ZM73.8486 73.64C73.8486 74.0667 73.9446 74.456 74.1366 74.808C74.3286 75.1493 74.5846 75.4213 74.9046 75.624C75.2353 75.8267 75.598 75.928 75.9926 75.928C76.4086 75.928 76.7766 75.8267 77.0966 75.624C77.4273 75.4213 77.6833 75.1493 77.8646 74.808C78.046 74.456 78.1366 74.0667 78.1366 73.64C78.1366 73.2133 78.046 72.8293 77.8646 72.488C77.6833 72.136 77.4273 71.8587 77.0966 71.656C76.7766 71.4427 76.4086 71.336 75.9926 71.336C75.5873 71.336 75.2193 71.4427 74.8886 71.656C74.5686 71.8693 74.3126 72.152 74.1206 72.504C73.9393 72.8453 73.8486 73.224 73.8486 73.64Z" fill="white"/>
<path d="M82.9834 70.376L83.1274 72.296L83.0474 72.04C83.218 71.6347 83.4634 71.2933 83.7834 71.016C84.114 70.728 84.4554 70.5093 84.8074 70.36C85.17 70.2 85.4847 70.12 85.7514 70.12L85.6714 71.592C85.17 71.56 84.7274 71.656 84.3434 71.88C83.97 72.104 83.6714 72.4027 83.4474 72.776C83.234 73.1493 83.1274 73.5493 83.1274 73.976V77H81.6554V70.376H82.9834Z" fill="white"/>
<path d="M88.999 70.376L89.127 71.864L89.063 71.736C89.3083 71.2347 89.655 70.84 90.103 70.552C90.5617 70.264 91.0843 70.12 91.671 70.12C92.0443 70.12 92.375 70.1787 92.663 70.296C92.951 70.4133 93.1857 70.584 93.367 70.808C93.559 71.0213 93.6817 71.288 93.735 71.608L93.655 71.656C93.911 71.176 94.263 70.8027 94.711 70.536C95.1697 70.2587 95.6497 70.12 96.151 70.12C96.8017 70.12 97.3137 70.3067 97.687 70.68C98.071 71.0427 98.2683 71.5173 98.279 72.104V77H96.791V72.632C96.7803 72.2907 96.695 72.008 96.535 71.784C96.3857 71.5493 96.119 71.4213 95.735 71.4C95.351 71.4 95.0043 71.5173 94.695 71.752C94.3963 71.9867 94.1617 72.2907 93.991 72.664C93.8203 73.0267 93.7297 73.4213 93.719 73.848V77H92.231V72.632C92.2203 72.2907 92.1297 72.008 91.959 71.784C91.799 71.5493 91.527 71.4213 91.143 71.4C90.7483 71.4 90.4017 71.5173 90.103 71.752C89.8043 71.9867 89.5697 72.2907 89.399 72.664C89.239 73.0373 89.159 73.4373 89.159 73.864V77H87.671V70.376H88.999Z" fill="white"/>
<path d="M103.626 77.16C103.007 77.16 102.442 77.0267 101.93 76.76C101.429 76.4933 101.029 76.104 100.73 75.592C100.442 75.0693 100.298 74.4347 100.298 73.688C100.298 72.952 100.453 72.3173 100.762 71.784C101.071 71.24 101.482 70.824 101.994 70.536C102.517 70.248 103.087 70.104 103.706 70.104C104.325 70.104 104.847 70.248 105.274 70.536C105.701 70.8133 106.026 71.144 106.25 71.528L106.154 71.784L106.298 70.376H107.674V77H106.186V75.272L106.346 75.656C106.303 75.7627 106.207 75.9013 106.058 76.072C105.919 76.232 105.727 76.3973 105.482 76.568C105.247 76.7387 104.975 76.8827 104.666 77C104.357 77.1067 104.01 77.16 103.626 77.16ZM104.026 75.928C104.399 75.928 104.735 75.8587 105.034 75.72C105.333 75.5813 105.578 75.3893 105.77 75.144C105.973 74.888 106.111 74.584 106.186 74.232V72.936C106.101 72.616 105.951 72.3387 105.738 72.104C105.525 71.8587 105.269 71.672 104.97 71.544C104.671 71.4053 104.341 71.336 103.978 71.336C103.583 71.336 103.221 71.432 102.89 71.624C102.559 71.816 102.293 72.0827 102.09 72.424C101.898 72.7653 101.802 73.1653 101.802 73.624C101.802 74.0507 101.903 74.44 102.106 74.792C102.309 75.144 102.581 75.4213 102.922 75.624C103.263 75.8267 103.631 75.928 104.026 75.928Z" fill="white"/>
<path d="M112.105 77.128C111.636 77.128 111.177 77.048 110.729 76.888C110.292 76.7173 109.929 76.4667 109.641 76.136L110.265 75.272C110.542 75.5387 110.825 75.7413 111.113 75.88C111.412 76.008 111.705 76.072 111.993 76.072C112.206 76.072 112.404 76.0453 112.585 75.992C112.766 75.9387 112.91 75.8533 113.017 75.736C113.134 75.608 113.193 75.4373 113.193 75.224C113.193 74.9893 113.113 74.8027 112.953 74.664C112.804 74.5253 112.606 74.4133 112.361 74.328C112.126 74.2427 111.876 74.1627 111.609 74.088C111.065 73.9067 110.649 73.656 110.361 73.336C110.073 73.016 109.929 72.6267 109.929 72.168C109.929 71.816 110.014 71.4907 110.185 71.192C110.366 70.8827 110.628 70.632 110.969 70.44C111.321 70.248 111.753 70.152 112.265 70.152C112.724 70.152 113.134 70.2107 113.497 70.328C113.86 70.4347 114.201 70.616 114.521 70.872L113.929 71.8C113.737 71.5973 113.508 71.448 113.241 71.352C112.974 71.256 112.734 71.2027 112.521 71.192C112.34 71.1813 112.164 71.208 111.993 71.272C111.833 71.336 111.7 71.4267 111.593 71.544C111.486 71.6613 111.433 71.8 111.433 71.96C111.433 72.184 111.508 72.3653 111.657 72.504C111.806 72.6427 111.998 72.7547 112.233 72.84C112.478 72.9147 112.718 72.9947 112.953 73.08C113.284 73.176 113.577 73.304 113.833 73.464C114.089 73.624 114.292 73.8213 114.441 74.056C114.601 74.2907 114.681 74.584 114.681 74.936C114.681 75.3307 114.585 75.6987 114.393 76.04C114.212 76.3707 113.929 76.6373 113.545 76.84C113.172 77.032 112.692 77.128 112.105 77.128Z" fill="white"/>
<path d="M116.765 70.376H118.253V77H116.765V70.376ZM116.653 67.976C116.653 67.7413 116.743 67.544 116.925 67.384C117.117 67.224 117.325 67.144 117.549 67.144C117.773 67.144 117.97 67.224 118.141 67.384C118.322 67.544 118.413 67.7413 118.413 67.976C118.413 68.2213 118.322 68.424 118.141 68.584C117.97 68.7333 117.773 68.808 117.549 68.808C117.325 68.808 117.117 68.728 116.925 68.568C116.743 68.408 116.653 68.2107 116.653 67.976Z" fill="white"/>
<path d="M125.106 77L130.162 64.952H130.258L135.298 77H133.522L129.746 67.384L130.85 66.664L126.626 77H125.106ZM128.066 72.616H132.37L132.882 73.96H127.618L128.066 72.616Z" fill="white"/>
<path d="M137.108 77V64.616H138.596V77H137.108ZM140.197 72.6L143.236 77H141.492L139.204 73.432L140.197 72.6ZM138.132 74.888L137.988 73.464L142.005 70.232L142.917 71.016L138.132 74.888Z" fill="white"/>
<path d="M147.72 77.16C147.101 77.16 146.536 77.0267 146.024 76.76C145.523 76.4933 145.123 76.104 144.824 75.592C144.536 75.0693 144.392 74.4347 144.392 73.688C144.392 72.952 144.547 72.3173 144.856 71.784C145.165 71.24 145.576 70.824 146.088 70.536C146.611 70.248 147.181 70.104 147.8 70.104C148.419 70.104 148.941 70.248 149.368 70.536C149.795 70.8133 150.12 71.144 150.344 71.528L150.248 71.784L150.392 70.376H151.768V77H150.28V75.272L150.44 75.656C150.397 75.7627 150.301 75.9013 150.152 76.072C150.013 76.232 149.821 76.3973 149.576 76.568C149.341 76.7387 149.069 76.8827 148.76 77C148.451 77.1067 148.104 77.16 147.72 77.16ZM148.12 75.928C148.493 75.928 148.829 75.8587 149.128 75.72C149.427 75.5813 149.672 75.3893 149.864 75.144C150.067 74.888 150.205 74.584 150.28 74.232V72.936C150.195 72.616 150.045 72.3387 149.832 72.104C149.619 71.8587 149.363 71.672 149.064 71.544C148.765 71.4053 148.435 71.336 148.072 71.336C147.677 71.336 147.315 71.432 146.984 71.624C146.653 71.816 146.387 72.0827 146.184 72.424C145.992 72.7653 145.896 73.1653 145.896 73.624C145.896 74.0507 145.997 74.44 146.2 74.792C146.403 75.144 146.675 75.4213 147.016 75.624C147.357 75.8267 147.725 75.928 148.12 75.928Z" fill="white"/>
<path d="M157.031 77.16C156.423 77.16 155.868 77.016 155.367 76.728C154.876 76.4293 154.487 76.0133 154.199 75.48C153.911 74.936 153.767 74.312 153.767 73.608C153.767 72.872 153.916 72.2427 154.215 71.72C154.524 71.1973 154.94 70.7973 155.463 70.52C155.986 70.2427 156.572 70.104 157.223 70.104C157.746 70.104 158.242 70.216 158.711 70.44C159.191 70.664 159.564 70.9733 159.831 71.368L159.767 71.896V64.616H161.239V77H159.751V75.352L159.911 75.768C159.602 76.1733 159.202 76.5093 158.711 76.776C158.22 77.032 157.66 77.16 157.031 77.16ZM157.495 75.896C157.89 75.896 158.242 75.8267 158.551 75.688C158.86 75.5387 159.116 75.336 159.319 75.08C159.522 74.824 159.666 74.52 159.751 74.168V72.92C159.666 72.6 159.511 72.3227 159.287 72.088C159.074 71.8427 158.812 71.6507 158.503 71.512C158.204 71.3627 157.868 71.288 157.495 71.288C157.09 71.288 156.716 71.3893 156.375 71.592C156.044 71.784 155.778 72.0507 155.575 72.392C155.372 72.7333 155.271 73.128 155.271 73.576C155.271 74.0133 155.372 74.408 155.575 74.76C155.778 75.1013 156.05 75.3787 156.391 75.592C156.732 75.7947 157.1 75.896 157.495 75.896Z" fill="white"/>
<path d="M166.899 77.16C166.142 77.16 165.491 77.0107 164.947 76.712C164.403 76.4027 163.982 75.9867 163.683 75.464C163.395 74.9307 163.251 74.3227 163.251 73.64C163.251 72.9893 163.417 72.3973 163.747 71.864C164.078 71.3307 164.521 70.904 165.075 70.584C165.63 70.264 166.249 70.104 166.931 70.104C167.806 70.104 168.531 70.36 169.107 70.872C169.683 71.384 170.073 72.088 170.275 72.984L164.819 74.904L164.467 74.024L168.947 72.392L168.627 72.6C168.499 72.248 168.286 71.944 167.987 71.688C167.689 71.4213 167.299 71.288 166.819 71.288C166.414 71.288 166.051 71.3893 165.731 71.592C165.411 71.784 165.161 72.0507 164.979 72.392C164.798 72.7333 164.707 73.1227 164.707 73.56C164.707 74.0187 164.803 74.424 164.995 74.776C165.187 75.1173 165.449 75.3893 165.779 75.592C166.121 75.784 166.505 75.88 166.931 75.88C167.219 75.88 167.497 75.8267 167.763 75.72C168.041 75.6133 168.297 75.4747 168.531 75.304L169.219 76.408C168.889 76.632 168.515 76.8133 168.099 76.952C167.694 77.0907 167.294 77.16 166.899 77.16Z" fill="white"/>
<path d="M173.468 70.376L173.596 71.864L173.532 71.736C173.777 71.2347 174.124 70.84 174.572 70.552C175.03 70.264 175.553 70.12 176.14 70.12C176.513 70.12 176.844 70.1787 177.132 70.296C177.42 70.4133 177.654 70.584 177.836 70.808C178.028 71.0213 178.15 71.288 178.204 71.608L178.124 71.656C178.38 71.176 178.732 70.8027 179.18 70.536C179.638 70.2587 180.118 70.12 180.62 70.12C181.27 70.12 181.782 70.3067 182.156 70.68C182.54 71.0427 182.737 71.5173 182.748 72.104V77H181.26V72.632C181.249 72.2907 181.164 72.008 181.004 71.784C180.854 71.5493 180.588 71.4213 180.204 71.4C179.82 71.4 179.473 71.5173 179.164 71.752C178.865 71.9867 178.63 72.2907 178.46 72.664C178.289 73.0267 178.198 73.4213 178.188 73.848V77H176.7V72.632C176.689 72.2907 176.598 72.008 176.428 71.784C176.268 71.5493 175.996 71.4213 175.612 71.4C175.217 71.4 174.87 71.5173 174.572 71.752C174.273 71.9867 174.038 72.2907 173.868 72.664C173.708 73.0373 173.628 73.4373 173.628 73.864V77H172.14V70.376H173.468Z" fill="white"/>
<path d="M185.343 70.376H186.831V77H185.343V70.376ZM185.231 67.976C185.231 67.7413 185.322 67.544 185.503 67.384C185.695 67.224 185.903 67.144 186.127 67.144C186.351 67.144 186.548 67.224 186.719 67.384C186.9 67.544 186.991 67.7413 186.991 67.976C186.991 68.2213 186.9 68.424 186.719 68.584C186.548 68.7333 186.351 68.808 186.127 68.808C185.903 68.808 185.695 68.728 185.503 68.568C185.322 68.408 185.231 68.2107 185.231 67.976Z" fill="white"/>
<path d="M189.405 77V64.616H190.893V77H189.405ZM192.493 72.6L195.533 77H193.789L191.501 73.432L192.493 72.6ZM190.429 74.888L190.285 73.464L194.301 70.232L195.213 71.016L190.429 74.888Z" fill="white"/>
<g clip-path="url(#clip0_2_4)">
<path d="M51.8719 43.9656C52.3087 43.6255 52.6569 43.1849 52.8868 42.6813C53.1168 42.1777 53.2217 41.626 53.1927 41.0732C53.1636 40.5204 53.0015 39.9827 52.7201 39.506C52.4387 39.0292 52.0463 38.6275 51.5762 38.335L51.5625 18.3219L48.125 20.625V38.3281C47.6604 38.6205 47.2725 39.0198 46.9936 39.4927C46.7148 39.9656 46.5532 40.4983 46.5222 41.0464C46.4913 41.5945 46.5919 42.142 46.8157 42.6433C47.0395 43.1445 47.38 43.585 47.8088 43.9278L46.5094 45.6534C45.3537 47.1236 44.7136 48.933 44.6875 50.8028V55.0034H47.4891C48.1621 55.0034 48.8159 54.7789 49.3469 54.3655C49.878 53.9521 50.2561 53.3734 50.4212 52.7209L51.5591 48.1284V55.0034H54.9966V50.8441C54.9703 48.9646 54.3251 47.1463 53.1609 45.6706L51.8719 43.9656ZM27.5 0L0 13.75L27.5 30.9375L55 13.75L27.5 0Z" fill="white"/>
<path d="M27.5 34.375L10.3125 22.9281V28.8063C10.3125 31.9344 20.4187 41.25 27.5 41.25C34.5812 41.25 44.6875 31.9344 44.6875 28.8063V22.9281L27.5 34.375Z" fill="white"/>
</g>
<defs>
<clipPath id="clip0_2_4">
<rect width="55" height="55" fill="white"/>
</clipPath>
</defs>
</svg>
